<?xml version="1.0"?>
<svg xmlns="http://www.w3.org/2000/svg" xmlns:xlink="http://www.w3.org/1999/xlink" version="1.1" viewBox="0 0 192 192" width="96px" height="96px"><g fill="none" fill-rule="nonzero" stroke="none" stroke-width="1" stroke-linecap="butt" stroke-linejoin="miter" stroke-miterlimit="10" stroke-dasharray="" stroke-dashoffset="0" font-family="none" font-weight="none" font-size="none" text-anchor="none" style="mix-blend-mode: normal"><path d="M0,192v-192h192v192z" fill="none"/><g fill="#333333"><path d="M64,24c-22.056,0 -40,17.944 -40,40v64c0,22.056 17.944,40 40,40h64c22.056,0 40,-17.944 40,-40v-64c0,-22.056 -17.944,-40 -40,-40zM64,40h64c13.232,0 24,10.768 24,24v64c0,13.232 -10.768,24 -24,24h-64c-13.232,0 -24,-10.768 -24,-24v-64c0,-13.232 10.768,-24 24,-24zM136,48c-4.41828,0 -8,3.58172 -8,8c0,4.41828 3.58172,8 8,8c4.41828,0 8,-3.58172 8,-8c0,-4.41828 -3.58172,-8 -8,-8zM96,56c-22.056,0 -40,17.944 -40,40c0,22.056 17.944,40 40,40c22.056,0 40,-17.944 40,-40c0,-22.056 -17.944,-40 -40,-40zM96,72c13.232,0 24,10.768 24,24c0,13.232 -10.768,24 -24,24c-13.232,0 -24,-10.768 -24,-24c0,-13.232 10.768,-24 24,-24z"/></g></g></svg>
